<svg width="49" height="41" viewBox="0 0 49 41" fill="none" xmlns="http://www.w3.org/2000/svg">
<path d="M48.7896 12.5725L37.6566 2.38387L37.6608 0.183054C37.6608 0.0873668 37.5828 0.0104008 37.4857 0.0104008L33.7177 0C33.6207 0 33.5426 0.076966 33.5426 0.172653V0.597007C33.5426 0.692694 33.6207 0.76966 33.7177 0.76966H34.2705C34.4245 0.76966 34.5511 0.89447 34.549 1.04632V1.32922C34.549 1.48732 34.4182 1.61421 34.2578 1.61421L14.2829 1.57052C14.2829 1.57052 14.2787 1.57052 14.2766 1.57052C14.2744 1.57052 14.2723 1.57052 14.2702 1.57052L12.4643 1.56636C12.2744 1.56636 12.0909 1.63709 11.9516 1.76398L0.118145 12.4643C0.118145 12.4643 0.118145 12.4664 0.118145 12.4685C0.116035 12.4685 0.113925 12.4727 0.111816 12.4747C0.107596 12.481 0.101267 12.4851 0.0970476 12.4914C0.0970476 12.4935 0.0928282 12.4976 0.0907185 12.4997C0.086499 12.5059 0.0822795 12.5122 0.0801698 12.5184C0.0801698 12.5205 0.0780601 12.5226 0.0759503 12.5267C0.0717309 12.5371 0.0696211 12.5455 0.0675114 12.5559C0.0675114 12.5579 0.0675114 12.5621 0.0675114 12.5642C0.0675114 12.5725 0.0654017 12.5808 0.0654017 12.5891V12.5933L0 40.5757C0 40.6713 0.0780601 40.7483 0.175108 40.7483L48.6061 40.8523C48.7031 40.8523 48.7812 40.7753 48.7812 40.6797L48.8445 12.6952C48.8445 12.6453 48.8234 12.6016 48.7875 12.5683L48.7896 12.5725ZM37.5975 2.7999L47.9711 12.2917C48.0597 12.3749 48.0027 12.5226 47.8782 12.5226H46.9837C46.8044 12.5205 46.6314 12.4539 46.5006 12.3333L36.2009 2.90599C36.0912 2.80614 36.1629 2.62516 36.3127 2.62516H37.1587C37.3212 2.62725 37.4773 2.68965 37.5975 2.7999ZM46.3044 35.0861H46.0976C46.2137 34.953 46.3213 34.8323 46.412 34.7325V34.9821C46.412 35.0403 46.3635 35.0861 46.3044 35.0861ZM46.4099 35.55L46.4014 39.3504C46.4014 39.4128 46.3487 39.4648 46.2854 39.4648H45.7917C45.7242 39.4648 45.6694 39.4108 45.6694 39.3421L45.6778 35.5916C45.6862 35.5812 45.6968 35.5687 45.7052 35.5562C45.7263 35.5271 45.7495 35.498 45.7727 35.4709C45.7812 35.4585 45.7917 35.448 45.8002 35.4356C45.8023 35.4314 45.8044 35.4293 45.8086 35.4252H46.2875C46.355 35.4252 46.4099 35.4834 46.4099 35.55ZM46.2284 34.4163C46.1166 34.5349 45.9732 34.693 45.8149 34.876C45.7031 35.0071 45.5386 35.084 45.3634 35.084L42.4161 35.0778C42.3107 35.0778 42.2579 34.9488 42.3318 34.876C43.4478 33.7548 44.2854 32.7958 44.8212 32.0199C44.8423 31.9887 44.8634 31.9575 44.8845 31.9284C45.0301 31.7142 45.1525 31.5124 45.2495 31.3272C45.3339 31.1671 45.4162 31.009 45.4921 30.8551C45.5533 30.7323 45.6145 30.6117 45.6694 30.4952C45.8803 30.0583 46.0512 29.6714 46.1884 29.3282C46.239 29.2055 46.4225 29.2429 46.4225 29.374L46.412 33.9503C46.412 34.123 46.3466 34.2894 46.2284 34.4163ZM44.8381 39.3151C44.7284 38.9427 44.4963 37.9359 44.8445 36.925V36.9208C44.8445 36.9208 44.8487 36.9125 44.8508 36.9083C44.8613 36.8854 44.8698 36.8646 44.8803 36.8418C44.8845 36.8334 44.8866 36.8272 44.8909 36.821C44.9035 36.7918 44.9183 36.7627 44.9331 36.7336C44.9373 36.7274 44.9394 36.7211 44.9436 36.7149C44.9542 36.692 44.9668 36.667 44.9795 36.6441C44.9858 36.6337 44.99 36.6254 44.9963 36.615C45.009 36.5901 45.0217 36.5672 45.0364 36.5422C45.0407 36.536 45.0449 36.5277 45.047 36.5214C45.066 36.4902 45.0829 36.459 45.1018 36.4278C45.1082 36.4174 45.1124 36.4091 45.1187 36.3987C45.1335 36.3758 45.1483 36.3508 45.163 36.3259C45.1693 36.3155 45.1757 36.3051 45.1841 36.2926C45.201 36.2635 45.22 36.2364 45.239 36.2073C45.2432 36.2011 45.2474 36.1948 45.2495 36.1886C45.2706 36.1553 45.2959 36.1199 45.3191 36.0846C45.3191 36.0804 45.3234 36.0763 45.3255 36.0742L45.3191 39.3525C45.3191 39.4149 45.2664 39.4648 45.2052 39.4648H44.8888C44.8866 39.4544 44.874 39.4212 44.8571 39.3671C44.8529 39.3504 44.8487 39.3338 44.8423 39.3151H44.8381ZM44.2938 38.2063V38.2147C44.2938 38.2417 44.2938 38.2687 44.2959 38.2937V38.3124C44.2959 38.3395 44.298 38.3644 44.3001 38.3915C44.3001 38.3936 44.3001 38.3977 44.3001 38.4019C44.3001 38.4248 44.3001 38.4497 44.3044 38.4726C44.3044 38.4788 44.3044 38.483 44.3044 38.4872C44.3044 38.5121 44.3086 38.5371 44.3107 38.5621C44.3107 38.5683 44.3107 38.5725 44.3107 38.5766C44.3107 38.5995 44.3149 38.6245 44.317 38.6473V38.6557C44.3191 38.6806 44.3233 38.7056 44.3255 38.7285C44.3255 38.7326 44.3255 38.7389 44.3255 38.743C44.3276 38.768 44.3297 38.7909 44.3339 38.8138C44.3339 38.8138 44.3339 38.8179 44.3339 38.82C44.336 38.8429 44.3402 38.8637 44.3423 38.8866C44.3423 38.8907 44.3423 38.897 44.3423 38.899C44.3444 38.9219 44.3487 38.9448 44.3508 38.9656C44.3508 38.9698 44.3508 38.9739 44.3508 38.976C44.3529 38.9968 44.3571 39.0155 44.3592 39.0363C44.3592 39.0384 44.3592 39.0405 44.3592 39.0447C44.3634 39.0655 44.3655 39.0863 44.3698 39.1071C44.3698 39.1112 44.3698 39.1154 44.3698 39.1195C44.3719 39.1403 44.3761 39.1591 44.3782 39.1799C44.3824 39.2007 44.3866 39.2194 44.3888 39.2381C44.3888 39.2402 44.3888 39.2443 44.3888 39.2464C44.3909 39.2651 44.3951 39.2839 44.3972 39.3005C44.3972 39.3005 44.3972 39.3047 44.3972 39.3068C44.3993 39.3234 44.4035 39.34 44.4056 39.3567C44.4056 39.3567 44.4056 39.3588 44.4056 39.3608C44.4077 39.3775 44.412 39.3941 44.4141 39.4108C44.4141 39.4108 44.4141 39.4149 44.4141 39.417C44.4183 39.4316 44.4204 39.4461 44.4225 39.4607L36.2958 39.444C36.319 39.4336 36.3443 39.4253 36.3676 39.4149C36.3718 39.4149 36.3781 39.4108 36.3823 39.4087C36.4034 39.4004 36.4224 39.392 36.4435 39.3837C36.4498 39.3816 36.454 39.3796 36.4604 39.3775C36.4815 39.3671 36.5026 39.3588 36.5237 39.3504C36.5279 39.3504 36.5321 39.3463 36.5363 39.3442C36.5891 39.3234 36.6439 39.3005 36.6988 39.2776C36.6988 39.2776 36.703 39.2776 36.7051 39.2756C36.7283 39.2651 36.7536 39.2547 36.7768 39.2443C36.7832 39.2423 36.7874 39.2381 36.7937 39.236C36.8148 39.2256 36.838 39.2173 36.8591 39.2069C36.8654 39.2069 36.8718 39.2027 36.8781 39.1986C36.9013 39.1882 36.9266 39.1778 36.9498 39.1674C36.9541 39.1674 36.9583 39.1653 36.9604 39.1632C37.0152 39.1383 37.0722 39.1133 37.1292 39.0863C37.1355 39.0842 37.1397 39.08 37.146 39.0779C37.1671 39.0675 37.1903 39.0571 37.2136 39.0467C37.2199 39.0426 37.2283 39.0405 37.2346 39.0363C37.2557 39.0259 37.279 39.0155 37.3001 39.0051C37.3064 39.001 37.3127 38.9989 37.3212 38.9947C37.3465 38.9822 37.3718 38.9698 37.3992 38.9573C37.4013 38.9573 37.4034 38.9573 37.4076 38.9531C37.4372 38.9386 37.4667 38.924 37.4963 38.9094C37.4984 38.9094 37.5026 38.9074 37.5047 38.9053C37.53 38.8928 37.5553 38.8782 37.5806 38.8658C37.5891 38.8616 37.5954 38.8574 37.6039 38.8554C37.625 38.845 37.646 38.8346 37.6671 38.8221C37.6756 38.8179 37.684 38.8138 37.6904 38.8096C37.7114 38.7992 37.7325 38.7867 37.7558 38.7763C37.7621 38.7722 37.7684 38.768 37.7769 38.7659C37.8338 38.7368 37.8887 38.7056 37.9456 38.6723C37.952 38.6681 37.9583 38.664 37.9646 38.6619C37.9857 38.6494 38.0068 38.6369 38.0279 38.6245C38.0363 38.6203 38.0448 38.6141 38.0532 38.6099C38.0722 38.5995 38.0933 38.587 38.1123 38.5745C38.1207 38.5704 38.1292 38.5641 38.1376 38.56C38.1587 38.5475 38.1798 38.535 38.2009 38.5225C38.2072 38.5184 38.2136 38.5142 38.2199 38.5121C38.2473 38.4955 38.2747 38.4788 38.3022 38.4622C38.3022 38.4622 38.3064 38.4601 38.3106 38.458C38.3338 38.4435 38.3591 38.4289 38.3823 38.4123C38.3908 38.406 38.3971 38.4019 38.4056 38.3956C38.4245 38.3832 38.4435 38.3707 38.4604 38.3582C38.4688 38.352 38.4773 38.3478 38.4857 38.3416C38.5047 38.3291 38.5216 38.3166 38.5385 38.3041C38.5469 38.2979 38.5553 38.2937 38.5638 38.2875C38.5849 38.2729 38.606 38.2584 38.625 38.2438C38.6292 38.2417 38.6334 38.2375 38.6376 38.2355C38.6629 38.2167 38.6883 38.198 38.7115 38.1814C38.7178 38.1772 38.722 38.1731 38.7304 38.1689C38.7494 38.1543 38.7663 38.1419 38.7853 38.1273C38.7937 38.1211 38.8022 38.1148 38.8085 38.1086C38.8254 38.0961 38.8402 38.0836 38.8549 38.0711C38.8634 38.0649 38.8718 38.0566 38.8802 38.0503C38.8971 38.0379 38.9119 38.0254 38.9288 38.0108C38.9351 38.0046 38.9435 38.0004 38.9499 37.9921C38.971 37.9734 38.9942 37.9546 39.0153 37.9359C39.5954 37.4284 40.1482 36.9291 40.663 36.4548C40.7347 36.3883 40.8064 36.3238 40.876 36.2572C41.0891 36.0596 41.2959 35.862 41.4963 35.6706C41.528 35.6394 41.5617 35.6082 41.5955 35.5749C41.701 35.473 41.8423 35.4148 41.9921 35.4148L45.0997 35.421C45.201 35.421 45.2622 35.5354 45.201 35.6186C45.1208 35.7289 45.0322 35.8495 45.0132 35.8766C44.9964 35.9036 44.9774 35.9286 44.9605 35.9556C44.7474 36.2739 44.5871 36.563 44.4858 36.8189C44.4753 36.8459 44.4647 36.8709 44.4563 36.8979C44.4563 36.9042 44.452 36.9083 44.4499 36.9146C44.4415 36.9416 44.4331 36.9666 44.4246 36.9936C44.4246 36.9978 44.4225 37.0019 44.4204 37.0061C44.412 37.0311 44.4056 37.0539 44.3993 37.0789C44.3993 37.0831 44.3972 37.0872 44.3951 37.0914C44.3866 37.1184 44.3803 37.1455 44.374 37.1704C44.374 37.1767 44.374 37.1808 44.3698 37.1891C44.3634 37.2162 44.3571 37.2411 44.3529 37.2682C44.3529 37.2682 44.3529 37.2682 44.3529 37.2724C44.3466 37.2994 44.3423 37.3264 44.336 37.3556C44.336 37.3618 44.336 37.368 44.3339 37.3743C44.3297 37.4013 44.3233 37.4284 44.3212 37.4554C44.3212 37.4596 44.3212 37.4637 44.3212 37.4679C44.317 37.4928 44.3149 37.5178 44.3107 37.5428C44.3107 37.549 44.3107 37.5532 44.3107 37.5594C44.3086 37.5865 44.3044 37.6135 44.3022 37.6405C44.3022 37.6468 44.3022 37.653 44.3022 37.6593C44.3001 37.6863 44.298 37.7113 44.2959 37.7383C44.2959 37.7383 44.2959 37.7425 44.2959 37.7445C44.2959 37.7716 44.2917 37.8007 44.2917 37.8278C44.2917 37.834 44.2917 37.8402 44.2917 37.8465C44.2917 37.8735 44.2917 37.9006 44.2896 37.9276C44.2896 37.9318 44.2896 37.9359 44.2896 37.9401C44.2896 37.965 44.2896 37.99 44.2896 38.015C44.2896 38.0212 44.2896 38.0254 44.2896 38.0316V38.1294C44.2896 38.1543 44.2896 38.1793 44.2896 38.2063H44.2938ZM24.3526 25.2553L24.3801 13.1154C24.3801 12.9511 24.5151 12.82 24.6796 12.82H25.7683C25.9307 12.8221 26.0636 12.9532 26.0636 13.1154L26.0046 39.2069C26.0046 39.3255 25.9054 39.4232 25.783 39.4232H24.5235C24.4117 39.4212 24.321 39.3296 24.321 39.2194L24.3505 25.9875C24.3526 25.9396 24.3716 25.6609 24.3505 25.2573L24.3526 25.2553ZM23.1986 9.64363L15.4475 2.58148L26.6543 2.60644C26.5109 2.68133 26.3484 2.76454 26.1775 2.85606C26.032 2.93511 25.8716 3.02456 25.7007 3.12232C25.2894 3.35946 24.8252 3.64652 24.4033 3.95231C24.3041 4.02511 24.2071 4.09792 24.1142 4.17281C23.4096 4.73237 23.0509 5.21705 23.0172 5.64972C22.9982 5.88478 23.0762 6.09696 23.245 6.28001C23.5214 6.57955 23.8146 6.80421 24.1417 6.96438C24.1817 6.98519 24.2218 7.00183 24.2598 7.01847C24.2703 7.02263 24.2788 7.02679 24.2872 7.03095C24.3273 7.04759 24.3653 7.06215 24.4033 7.07671C24.4096 7.07671 24.4138 7.08087 24.4201 7.08295C24.456 7.09543 24.4898 7.10792 24.5256 7.11832C24.5341 7.11832 24.5425 7.12248 24.5509 7.12664C24.5889 7.13704 24.629 7.14952 24.667 7.15992C24.6754 7.162 24.6839 7.16408 24.6923 7.16616C24.7261 7.17448 24.7619 7.1828 24.7957 7.18904C24.8041 7.18904 24.8104 7.1932 24.8168 7.1932C24.8547 7.20152 24.8948 7.20776 24.9328 7.214C24.9434 7.214 24.9539 7.21608 24.9623 7.21816C24.9982 7.22232 25.032 7.22856 25.0678 7.23273C25.072 7.23273 25.0784 7.23273 25.0826 7.23273C25.1227 7.23689 25.1607 7.24105 25.1986 7.24313C25.2092 7.24313 25.2197 7.24313 25.2303 7.24521C25.2683 7.24729 25.3062 7.24937 25.3442 7.25145H25.3611C25.3948 7.25145 25.4307 7.25145 25.4623 7.25353H25.5383C25.5868 7.25353 25.6353 7.25353 25.6818 7.25145C25.6944 7.25145 25.7071 7.25145 25.7197 7.25145C25.7767 7.25145 25.8337 7.24521 25.8906 7.24313C25.8991 7.24313 25.9054 7.24313 25.9117 7.24313C25.9624 7.23897 26.013 7.23481 26.0636 7.23065C26.0784 7.23065 26.091 7.22856 26.1058 7.22648C26.1607 7.22232 26.2176 7.21608 26.2704 7.20984C26.4413 7.19112 26.6122 7.16824 26.7788 7.14328C26.9835 7.11624 27.1944 7.08711 27.4012 7.06631C27.9582 7.01015 29.262 6.88118 29.5426 7.26601C29.6354 7.3929 29.6185 7.59467 29.494 7.86717C29.0679 8.80533 27.7198 10.6588 27.0932 11.443C26.7978 11.8132 26.4392 12.2002 26.2324 12.4082L23.1944 9.64155L23.1986 9.64363ZM36.222 12.404C36.2199 12.379 36.2157 12.3541 36.2135 12.3291C36.2114 12.3021 36.2072 12.275 36.2051 12.248C36.2051 12.221 36.2009 12.196 36.1967 12.169C36.1946 12.1419 36.1924 12.119 36.1903 12.092C36.1882 12.0649 36.184 12.0379 36.1819 12.0109C36.1819 11.988 36.1777 11.963 36.1756 11.9401C36.1756 11.9131 36.1713 11.884 36.1692 11.8569C36.1692 11.834 36.1671 11.8132 36.165 11.7904C36.165 11.7612 36.1608 11.7342 36.1587 11.7072C36.1587 11.6864 36.1587 11.6656 36.1566 11.6427C36.1566 11.6156 36.1545 11.5865 36.1524 11.5595C36.1524 11.5387 36.1524 11.5199 36.1524 11.4991C36.1524 11.47 36.1524 11.443 36.1502 11.4159C36.1502 11.3951 36.1502 11.3764 36.1502 11.3577C36.1502 11.3286 36.1502 11.3015 36.1502 11.2745V11.2204C36.1502 11.1934 36.1502 11.1642 36.1502 11.1372C36.1502 11.1185 36.1502 11.1018 36.1502 11.0852V11.0041C36.1502 10.9874 36.1502 10.9708 36.1502 10.9541C36.1502 10.9271 36.1502 10.9001 36.1502 10.873C36.1502 10.8564 36.1502 10.8418 36.1502 10.8252C36.1502 10.7981 36.1502 10.7711 36.1524 10.744C36.1524 10.7295 36.1524 10.7149 36.1545 10.6983C36.1545 10.6712 36.1545 10.6442 36.1587 10.6171C36.1587 10.6026 36.1587 10.588 36.1608 10.5735C36.1608 10.5464 36.165 10.5194 36.1671 10.4944C36.1671 10.4799 36.1671 10.4674 36.1692 10.4528C36.1713 10.4258 36.1735 10.4008 36.1756 10.3738C36.1756 10.3592 36.1777 10.3467 36.1798 10.3342C36.1819 10.3072 36.1861 10.2822 36.1882 10.2573C36.1882 10.2448 36.1903 10.2323 36.1924 10.2178C36.1946 10.1928 36.1988 10.1678 36.203 10.1408C36.203 10.1283 36.2051 10.1158 36.2072 10.1033C36.2093 10.0784 36.2135 10.0534 36.2178 10.0285C36.2178 10.016 36.222 10.0056 36.2241 9.9931C36.2262 9.96814 36.2304 9.94318 36.2346 9.91821C36.2346 9.90781 36.2389 9.89741 36.241 9.88493C36.2452 9.85997 36.2494 9.83501 36.2536 9.81213C36.2536 9.80173 36.2578 9.79133 36.26 9.78092C36.2642 9.75596 36.2705 9.73308 36.2726 9.7102C36.2726 9.6998 36.2768 9.6894 36.2789 9.679C36.2832 9.65611 36.2895 9.63115 36.2937 9.60827C36.2937 9.59787 36.2979 9.58747 36.3 9.57915C36.3064 9.55627 36.3106 9.53339 36.3169 9.5105C36.3169 9.5001 36.3211 9.49178 36.3232 9.48138C36.3275 9.4585 36.3338 9.43562 36.3401 9.41274C36.3401 9.40234 36.3443 9.39401 36.3465 9.38569C36.3528 9.36281 36.357 9.33993 36.3633 9.31705C36.3654 9.30873 36.3675 9.30041 36.3718 9.29209C36.3781 9.2692 36.3823 9.2484 36.3908 9.22552C36.3908 9.2172 36.395 9.20888 36.3971 9.20056C36.4034 9.17976 36.4097 9.15688 36.4182 9.13607C36.4182 9.12775 36.4224 9.12151 36.4245 9.11319C36.4308 9.09239 36.4372 9.07159 36.4456 9.05079C36.4477 9.04247 36.4498 9.03623 36.454 9.02791C36.4604 9.0071 36.4667 8.9863 36.4751 8.9655C36.4751 8.95926 36.4794 8.95094 36.4836 8.9447C36.4899 8.9239 36.4984 8.90518 36.5047 8.88437C36.5047 8.87813 36.5089 8.86981 36.511 8.86357C36.5195 8.84485 36.5258 8.82405 36.5342 8.80533C36.5363 8.79909 36.5384 8.79285 36.5427 8.78661C36.5511 8.76789 36.5574 8.74708 36.5659 8.72836C36.568 8.72212 36.5701 8.71588 36.5743 8.70964C36.5827 8.69092 36.5912 8.67012 36.5975 8.6514C36.5996 8.64515 36.6017 8.641 36.6059 8.63476C36.6144 8.61603 36.6228 8.59731 36.6313 8.57859C36.6334 8.57235 36.6355 8.56819 36.6397 8.56195C36.6481 8.54323 36.6566 8.52451 36.665 8.50578C36.6671 8.50163 36.6692 8.49538 36.6735 8.49122C36.6819 8.4725 36.6903 8.45586 36.6988 8.43714C36.7009 8.43298 36.703 8.42674 36.7072 8.42258C36.7157 8.40386 36.7241 8.38722 36.7346 8.37057C36.7346 8.36641 36.7389 8.36017 36.741 8.35601C36.7494 8.33729 36.76 8.32065 36.7684 8.30401C36.7705 8.29985 36.7726 8.29569 36.7768 8.29153C36.7853 8.27489 36.7958 8.25825 36.8043 8.2416C36.8043 8.23744 36.8085 8.23328 36.8106 8.22912C36.8211 8.21248 36.8296 8.19584 36.838 8.1792C36.8401 8.17504 36.8422 8.17088 36.8444 8.1688C36.8549 8.15216 36.8633 8.1376 36.8739 8.12095C36.8739 8.11679 36.8781 8.11263 36.8802 8.11055C36.8908 8.09599 36.8992 8.07935 36.9098 8.06479C36.9098 8.06063 36.914 8.05855 36.9161 8.05439C36.9266 8.03983 36.9351 8.02527 36.9456 8.00863C36.9477 8.00655 36.9498 8.00239 36.9519 7.99822C36.9625 7.98366 36.9709 7.9691 36.9815 7.95454C36.9815 7.95246 36.9857 7.9483 36.9878 7.94414C36.9984 7.92958 37.0089 7.91502 37.0173 7.90254C37.0173 7.90046 37.0216 7.8963 37.0237 7.89214C37.0342 7.87966 37.0448 7.86509 37.0532 7.85053C37.0532 7.85053 37.0574 7.84637 37.0595 7.84221C37.0701 7.82765 37.0806 7.81517 37.0891 7.80269C37.0891 7.80061 37.0933 7.79645 37.0954 7.79437C37.106 7.78189 37.1165 7.76733 37.1249 7.75485C37.1249 7.75485 37.1292 7.75069 37.1313 7.74653C37.1418 7.73404 37.1524 7.72156 37.1608 7.70908C37.1608 7.70908 37.165 7.70492 37.1671 7.70284C37.1777 7.69036 37.1861 7.67788 37.1967 7.6654C37.1967 7.6654 37.1988 7.66124 37.2009 7.65916C37.2114 7.64668 37.222 7.6342 37.2304 7.62172C37.2304 7.62172 37.2325 7.61756 37.2346 7.61548C37.2452 7.60507 37.2536 7.59259 37.2642 7.58011C37.2642 7.58011 37.2663 7.57595 37.2684 7.57387C37.279 7.56347 37.2895 7.55307 37.2979 7.54059C37.2979 7.54059 37.3001 7.53643 37.3022 7.53435C37.3106 7.52395 37.3211 7.51355 37.3296 7.50315C37.3296 7.50315 37.3317 7.49899 37.3338 7.49691C37.3444 7.48651 37.3528 7.47818 37.3612 7.46778C37.3612 7.46778 37.3655 7.46362 37.3655 7.46154C37.376 7.45114 37.3844 7.44282 37.3929 7.43242C37.3929 7.43242 37.3971 7.42826 37.3992 7.42618C37.4076 7.41578 37.4182 7.40746 37.4266 7.39706C37.4266 7.39706 37.4287 7.39498 37.4309 7.3929C37.4414 7.3825 37.4498 7.3721 37.4604 7.36378C37.4815 7.34089 37.5005 7.32217 37.5174 7.30345C37.5469 7.27433 37.5743 7.24729 37.5996 7.22232L37.6039 7.21816C37.7157 7.10792 37.7937 7.02887 37.838 6.94982C37.8528 6.92486 37.876 6.8895 37.9034 6.8479C38.0596 6.60868 38.3528 6.16352 38.2178 5.72461C38.1334 5.45835 37.9098 5.24617 37.549 5.09224C37.4836 5.0652 37.4119 5.04023 37.3359 5.01527C36.7536 4.83222 35.8739 4.75525 34.7156 4.78853H34.7114H34.6903C33.0447 4.83846 32.8253 4.52643 32.7979 4.42867C32.6882 4.04592 33.7663 3.21593 34.627 2.70213C34.722 2.64597 34.8296 2.61684 34.9414 2.61892H35.2367C35.3317 2.61892 35.4224 2.65429 35.4899 2.71877L45.8824 12.2293C45.9921 12.3312 45.9204 12.5143 45.7685 12.5143L36.2346 12.4935V12.4851C36.2304 12.456 36.2262 12.4269 36.2241 12.3978L36.222 12.404ZM35.7979 11.3286C35.7979 11.3764 35.8 11.4243 35.8021 11.4721C35.8021 11.5137 35.8043 11.5574 35.8064 11.599C35.8085 11.6489 35.8106 11.6968 35.8127 11.7467C35.8148 11.7883 35.819 11.832 35.8211 11.8756C35.8253 11.9256 35.8296 11.9755 35.8317 12.0254C35.8359 12.0691 35.8401 12.1149 35.8422 12.1585C35.8464 12.2085 35.8528 12.2605 35.857 12.3104C35.8612 12.3562 35.8654 12.3998 35.8718 12.4456C35.8718 12.4643 35.876 12.481 35.8781 12.4976H35.2663C35.0469 12.4976 34.8717 12.3208 34.8717 12.1045L34.8865 5.13384H34.9013C34.9625 5.13384 35.0215 5.13176 35.0827 5.12968H35.1017C35.2262 5.12968 35.3464 5.12968 35.4625 5.12968H35.4772C35.5342 5.12968 35.5891 5.13176 35.6418 5.13384H35.6629C35.7156 5.13384 35.7684 5.138 35.8211 5.14008C35.8275 5.14008 35.8338 5.14008 35.8401 5.14008C35.8929 5.14216 35.9435 5.14632 35.9941 5.1484H36.0005C36.0532 5.15256 36.1038 5.15672 36.1545 5.16088H36.1587C36.2072 5.16504 36.2536 5.1692 36.3 5.17336C36.3064 5.17336 36.3106 5.17336 36.3169 5.17336C36.3612 5.17752 36.4055 5.18376 36.4477 5.18793C36.454 5.18793 36.4604 5.18793 36.4667 5.18793C36.5089 5.19417 36.5511 5.20041 36.5933 5.20457C36.5975 5.20457 36.6038 5.20457 36.6081 5.20457C36.6503 5.21081 36.6924 5.21705 36.7325 5.22537C36.7726 5.23161 36.8127 5.23785 36.8507 5.24617C36.8549 5.24617 36.8591 5.24617 36.8633 5.24825C36.8992 5.25657 36.9351 5.26281 36.9709 5.27113C36.9773 5.27113 36.9815 5.27321 36.9878 5.27529C37.0216 5.28361 37.0532 5.29193 37.087 5.30025C37.0912 5.30025 37.0975 5.30233 37.1038 5.30441C37.1355 5.31482 37.1671 5.32314 37.1967 5.33146C37.2009 5.33146 37.203 5.33146 37.2072 5.33354C37.2368 5.34394 37.2663 5.35226 37.2958 5.36266C37.2958 5.36266 37.2979 5.36266 37.3001 5.36266L37.2958 7.02263C37.2811 7.03927 37.2642 7.05591 37.2473 7.07255C37.2473 7.07463 37.2431 7.07671 37.241 7.07879C37.2241 7.09751 37.2072 7.11416 37.1903 7.13288C37.1882 7.13496 37.184 7.13912 37.1819 7.1412C37.1629 7.15992 37.146 7.17864 37.1271 7.19944C37.1249 7.20152 37.1207 7.20568 37.1186 7.20984C37.0996 7.22856 37.0806 7.24937 37.0616 7.27225C37.0595 7.27641 37.0553 7.27849 37.0532 7.28265C37.0342 7.30345 37.0131 7.32633 36.9941 7.35129C36.992 7.35545 36.9878 7.35753 36.9857 7.3617C36.9646 7.38666 36.9435 7.41162 36.9224 7.43658C36.9224 7.43866 36.9182 7.44282 36.9161 7.4449C36.895 7.47194 36.8718 7.49899 36.8507 7.52811C36.8507 7.52811 36.8507 7.53019 36.8486 7.53227C36.8254 7.56139 36.8043 7.59051 36.7811 7.62172C36.7811 7.62172 36.7811 7.6238 36.7811 7.62588C36.7579 7.65708 36.7368 7.68828 36.7135 7.72156C36.7135 7.72572 36.7093 7.7278 36.7072 7.73196C36.6861 7.76317 36.6629 7.79645 36.6418 7.82973C36.6376 7.83389 36.6355 7.84013 36.6313 7.84429C36.6102 7.87758 36.5891 7.91086 36.568 7.94622C36.5659 7.95038 36.5616 7.95662 36.5574 7.96286C36.5363 7.99823 36.5152 8.03359 36.4941 8.07103C36.4899 8.07727 36.4878 8.08351 36.4836 8.08975C36.4625 8.12719 36.4435 8.16464 36.4224 8.20416C36.4203 8.2104 36.4161 8.21664 36.414 8.22288C36.3929 8.26241 36.3718 8.30401 36.3528 8.34561C36.3528 8.34977 36.3486 8.35601 36.3465 8.36017C36.3254 8.40386 36.3043 8.44962 36.2853 8.4933C36.2853 8.49746 36.2811 8.50162 36.2811 8.5037C36.26 8.55155 36.2389 8.60147 36.2199 8.6514C36.1945 8.71796 36.1692 8.78453 36.146 8.85109C36.1376 8.87397 36.1313 8.89894 36.1228 8.91974C36.1081 8.9655 36.0933 9.01126 36.0785 9.05703C36.0701 9.08615 36.0616 9.11527 36.0553 9.14439C36.0427 9.186 36.0321 9.2276 36.0194 9.27128C36.011 9.30249 36.0047 9.33369 35.9962 9.36489C35.9857 9.4065 35.9751 9.4481 35.9667 9.4897C35.9604 9.52298 35.954 9.55627 35.9456 9.58955C35.9372 9.63115 35.9287 9.67276 35.9203 9.71436C35.914 9.74972 35.9076 9.78508 35.9013 9.82045C35.895 9.86205 35.8886 9.90365 35.8802 9.94734C35.876 9.98478 35.8697 10.0201 35.8654 10.0576C35.8591 10.0992 35.8528 10.1429 35.8486 10.1866C35.8443 10.224 35.8401 10.2614 35.8359 10.2989C35.8317 10.3426 35.8275 10.3863 35.8232 10.4299C35.8211 10.4674 35.819 10.5069 35.8148 10.5464C35.8127 10.5901 35.8085 10.6359 35.8064 10.6796C35.8064 10.7191 35.8043 10.7586 35.8021 10.7981C35.8021 10.8439 35.8 10.8876 35.7979 10.9354C35.7979 10.9749 35.7979 11.0165 35.7958 11.0581C35.7958 11.1039 35.7958 11.1518 35.7958 11.1975C35.7958 11.2391 35.7958 11.2807 35.7958 11.3223L35.7979 11.3286ZM37.646 6.60036V5.54779C37.7663 5.631 37.8444 5.72461 37.876 5.8307C37.9562 6.08864 37.7811 6.39234 37.646 6.60036ZM33.8042 2.82486C33.7009 2.89767 33.5933 2.97463 33.4857 3.05576C32.6819 3.66317 32.3443 4.14368 32.454 4.52851C32.5721 4.94247 33.165 5.14216 34.3063 5.14632C34.435 5.14632 34.5384 5.24825 34.5384 5.37306L34.5236 12.2418C34.5236 12.3832 34.4076 12.4976 34.2641 12.4955L26.9835 12.4789C26.859 12.4789 26.7915 12.3333 26.8759 12.2397C27.0383 12.0608 27.2134 11.859 27.3738 11.6572C28.0088 10.8626 29.378 8.9759 29.8189 8.01071C29.9097 7.81101 29.9561 7.62796 29.9561 7.46778C29.9561 7.31385 29.9139 7.17864 29.8316 7.06423C29.4624 6.55875 28.3696 6.62324 27.3717 6.72309L26.6923 6.80837C26.5531 6.82501 26.4307 6.71892 26.4307 6.58163L26.437 3.39483C26.437 3.21801 26.5362 3.05784 26.6944 2.97463C26.9814 2.82486 27.2134 2.71253 27.3484 2.65013C27.4075 2.621 27.4708 2.60852 27.5341 2.60852L33.7388 2.621C33.8506 2.621 33.8949 2.76246 33.8042 2.82278V2.82486ZM26.0847 3.3033L26.0763 6.88326C26.0573 6.88326 26.0404 6.88742 26.0214 6.8895C26.0088 6.8895 25.9961 6.8895 25.9813 6.89158C25.9476 6.89574 25.9138 6.89782 25.8801 6.8999C25.8759 6.8999 25.8716 6.8999 25.8674 6.8999C25.8294 6.90198 25.7915 6.90406 25.7535 6.90614C25.7429 6.90614 25.7324 6.90614 25.724 6.90614C25.6965 6.90614 25.667 6.90614 25.6396 6.90822C25.6269 6.90822 25.6121 6.90822 25.5995 6.90822C25.5742 6.90822 25.5488 6.90822 25.5235 6.90822H25.4792C25.456 6.90822 25.4307 6.90822 25.4075 6.90614C25.3927 6.90614 25.378 6.90614 25.3632 6.90614C25.3379 6.90614 25.3126 6.90406 25.2894 6.90198C25.2767 6.90198 25.2619 6.90198 25.2493 6.8999C25.2197 6.8999 25.1923 6.89574 25.1649 6.89158C25.1543 6.89158 25.1438 6.89158 25.1332 6.8895C25.0953 6.88534 25.0552 6.8791 25.0172 6.87494C25.013 6.87494 25.0066 6.87494 25.0024 6.87286C24.9687 6.8687 24.937 6.86246 24.9033 6.85622C24.8906 6.85622 24.878 6.85206 24.8653 6.8479C24.84 6.84165 24.8147 6.83749 24.7893 6.83125C24.7746 6.82917 24.7598 6.82501 24.745 6.82085C24.7218 6.81461 24.6986 6.80837 24.6754 6.80005C24.6607 6.79589 24.6459 6.79173 24.6311 6.78757C24.6079 6.77925 24.5847 6.77301 24.5615 6.76469C24.5467 6.76053 24.532 6.75429 24.5172 6.75013C24.494 6.73973 24.4687 6.73141 24.4455 6.721C24.4328 6.71476 24.418 6.7106 24.4054 6.70436C24.4012 6.70436 24.3969 6.7002 24.3948 6.69812L24.399 4.38914C24.399 4.38914 24.4201 4.3725 24.4307 4.36418C24.4433 4.35378 24.4581 4.3413 24.4729 4.3309C24.4982 4.31218 24.5235 4.29138 24.5488 4.27265C24.5615 4.26225 24.5742 4.25393 24.5889 4.24353C24.6248 4.21649 24.6607 4.19153 24.6965 4.16657C24.6986 4.16657 24.7028 4.16241 24.705 4.16033C24.745 4.1312 24.7851 4.10416 24.8252 4.07712C24.8379 4.0688 24.8505 4.06048 24.8632 4.05216C24.8906 4.03343 24.9201 4.01263 24.9476 3.99391C24.9623 3.98351 24.9771 3.97519 24.9919 3.96479C25.0193 3.94607 25.0467 3.92943 25.0742 3.91071C25.0889 3.90238 25.1037 3.89198 25.1164 3.88366C25.148 3.86494 25.1775 3.84414 25.2092 3.82542C25.2197 3.81918 25.2303 3.81294 25.2408 3.8067C25.2809 3.77966 25.3231 3.75469 25.3632 3.72973C25.3695 3.72557 25.3759 3.72141 25.3822 3.71933C25.418 3.69853 25.4518 3.67565 25.4877 3.65485C25.5003 3.64652 25.513 3.64028 25.5235 3.63196C25.5531 3.61532 25.5805 3.5966 25.61 3.57996C25.6227 3.57164 25.6353 3.5654 25.6501 3.55708C25.6797 3.53836 25.7092 3.52171 25.7366 3.50507C25.7472 3.49883 25.7577 3.49259 25.7683 3.48635C25.8062 3.46347 25.8421 3.44267 25.8801 3.41979C25.8801 3.41979 25.8822 3.41979 25.8843 3.41979C25.9244 3.39691 25.9645 3.37402 26.0024 3.35322C26.0088 3.34906 26.013 3.34698 26.0214 3.34282C26.0446 3.33034 26.0678 3.31786 26.091 3.30538L26.0847 3.3033ZM24.0467 5.07144V6.13648C24.0446 6.29665 23.8505 6.37986 23.7303 6.27377C23.6522 6.20512 23.5784 6.13024 23.5024 6.04911C23.399 5.93678 23.3526 5.81405 23.3632 5.67884C23.3758 5.52491 23.4644 5.28985 23.764 4.96327C23.8632 4.8551 24.0467 4.92374 24.0467 5.07144ZM26.4117 14.1597C26.4117 13.9933 26.5489 13.8601 26.7176 13.8601L29.4793 13.8664C29.5721 13.8664 29.6481 13.9412 29.6481 14.0349L29.6438 15.855C29.6438 15.9486 29.5679 16.0235 29.4729 16.0235L26.7598 16.0173C26.5636 16.0173 26.4054 15.8592 26.4054 15.6678L26.4096 14.1597H26.4117ZM26.3632 35.6581C26.3632 35.5084 26.4877 35.3877 26.6375 35.3877H27.6966C27.8105 35.3898 27.9033 35.4813 27.9033 35.5957L27.8949 39.2402C27.8949 39.3442 27.8105 39.4274 27.705 39.4253H26.5341C26.4349 39.4232 26.3548 39.3442 26.3548 39.2443L26.3632 35.6581ZM27.6966 35.0445H26.5784C26.4603 35.0424 26.3632 34.9467 26.3632 34.8302L26.4012 17.7542C26.4012 17.5587 26.5615 17.4006 26.7598 17.4026L34.1798 17.4193C34.3612 17.4193 34.5089 17.5649 34.5068 17.7438L34.4941 23.7783C33.4224 24.1299 32.646 25.1263 32.6418 26.2995L32.6354 28.7437L28.6396 28.7354C28.2388 28.7354 27.9139 29.0536 27.9117 29.4489L27.8991 34.8427C27.8991 34.9551 27.8063 35.0466 27.6923 35.0466L27.6966 35.0445ZM35.3528 23.9864L41.4921 23.9988C42.3592 23.9988 43.0617 23.3103 43.0638 22.4554L43.0744 17.7687C43.0744 17.5857 43.2263 17.438 43.4119 17.438H44.201C44.3866 17.4401 44.5385 17.5899 44.5364 17.7729L44.5259 22.9151C44.5238 24.2526 43.4204 25.3343 42.0659 25.3301L35.6123 25.3156C34.9962 25.3156 34.4941 25.8065 34.492 26.4139L34.4878 28.4275C34.4878 28.5898 34.3549 28.7208 34.1882 28.7208H33.2409C33.1017 28.7187 32.9899 28.6064 32.9899 28.4691L32.9941 26.2953C32.9962 25.014 34.0511 23.9801 35.3507 23.9822L35.3528 23.9864ZM34.8485 23.3353L34.8612 17.7355C34.8612 17.5607 35.0047 17.4214 35.1819 17.4214L36.9667 17.4255C37.1376 17.4255 37.2747 17.5628 37.2726 17.7292L37.26 23.2853C37.26 23.485 37.0954 23.6452 36.8929 23.6452L35.1587 23.641C34.9878 23.641 34.8464 23.5038 34.8485 23.3353ZM37.6081 23.329L37.6207 17.6793C37.6207 17.5399 37.7368 17.4276 37.876 17.4276L40.1313 17.4318C40.2959 17.4318 40.4288 17.5628 40.4267 17.7251L40.414 23.3956C40.414 23.537 40.298 23.6514 40.1524 23.6514L37.9288 23.6473C37.7515 23.6473 37.6081 23.5038 37.6081 23.329ZM40.7642 23.4393L40.7769 17.6814C40.7769 17.5441 40.8908 17.4338 41.0279 17.4338C41.1545 17.4338 41.2579 17.5358 41.2558 17.6606L41.2431 23.4476C41.2431 23.562 41.1503 23.6535 41.0343 23.6514H40.9794C40.8592 23.6514 40.7621 23.5558 40.7621 23.4372L40.7642 23.4393ZM41.5955 23.3415L41.6081 17.6814C41.6081 17.5462 41.7199 17.4359 41.8571 17.4359H42.5237C42.6335 17.4359 42.7221 17.5254 42.7221 17.6335L42.7115 22.4574C42.7115 22.9692 42.3845 23.406 41.9267 23.5766C41.7663 23.6369 41.5934 23.51 41.5955 23.3415ZM44.5196 24.8247L44.5048 31.3605C44.5048 31.7038 44.3888 32.0366 44.1778 32.3091C43.72 32.8978 42.4478 34.1937 41.8655 34.7782C41.7579 34.8864 41.5701 34.8115 41.5701 34.6576L41.5891 26.131C41.5891 25.8793 41.798 25.6754 42.0533 25.6754H42.0638C42.9204 25.6754 43.6883 25.2989 44.2052 24.7019C44.3128 24.5771 44.5217 24.6582 44.5217 24.8226L44.5196 24.8247ZM40.9836 35.0736C40.8507 35.0736 40.741 34.9655 40.741 34.8323L40.76 25.8793C40.76 25.767 40.8528 25.6754 40.9668 25.6754H41.0469C41.1524 25.6754 41.2389 25.7607 41.2389 25.8668L41.2199 34.8427C41.2199 34.9717 41.1144 35.0757 40.9815 35.0757L40.9836 35.0736ZM41.2199 35.4189V35.4793C41.2031 35.4959 41.1841 35.5146 41.1672 35.5313C41.1166 35.5791 41.068 35.6249 41.0195 35.6727C40.9921 35.6977 40.9647 35.7226 40.9372 35.7497C40.8887 35.7954 40.8402 35.8433 40.7895 35.889C40.7727 35.9057 40.7558 35.9202 40.7389 35.9369V35.421L41.2199 35.4189ZM40.1292 35.0715H39.4035C39.2347 35.0715 39.0997 34.9342 39.0997 34.7699L39.1123 29.4738C39.1123 29.0765 38.7874 28.7562 38.3866 28.7541H37.9182C37.741 28.7541 37.5975 28.6106 37.5975 28.4358L37.6017 26.0873C37.6017 25.8564 37.7937 25.6671 38.0279 25.6692L40.03 25.6734C40.241 25.6734 40.4098 25.8419 40.4098 26.0499L40.3908 34.8178C40.3908 34.9592 40.2727 35.0715 40.1292 35.0715ZM40.3887 35.5562V36.0825C40.3887 36.1948 40.3402 36.3009 40.2579 36.3779C39.9457 36.6629 39.6208 36.9582 39.2853 37.2557C39.2136 37.3202 39.0975 37.2703 39.0975 37.1746L39.1018 35.6269C39.1018 35.5084 39.1988 35.4106 39.3212 35.4127H40.2495C40.3275 35.4148 40.3908 35.4772 40.3908 35.5541L40.3887 35.5562ZM36.8359 30.2476L32.0869 30.2372C31.8569 30.2372 31.6713 30.4182 31.6713 30.645L31.6628 34.643C31.6628 34.7741 31.5553 34.8802 31.4223 34.8802C31.3548 34.8802 31.2958 34.8531 31.2515 34.8094C31.2071 34.7678 31.1818 34.7075 31.1818 34.6409L31.1903 30.5721C31.1903 30.3849 31.0363 30.2331 30.8485 30.2331H30.2388C29.7936 30.231 29.4329 30.5867 29.4308 31.0256L29.4223 34.8074C29.4223 34.9384 29.3168 35.0445 29.1839 35.0445H28.5236C28.3759 35.0445 28.2556 34.928 28.2577 34.7824L28.2704 29.5612C28.2704 29.2929 28.4919 29.0786 28.762 29.0786L38.3106 29.0994C38.5638 29.0994 38.7684 29.3012 38.7663 29.5508L38.7558 34.7366C38.7558 34.9197 38.6039 35.0674 38.4182 35.0674H37.9098C37.7325 35.0674 37.5891 34.9239 37.5891 34.747L37.5975 30.9965C37.5975 30.5826 37.26 30.2476 36.8401 30.2476H36.8359ZM32.0067 36.3675V35.4002L37.2304 35.4106V36.3779L32.0067 36.3675ZM37.2283 36.7232V37.7716C37.2262 37.8714 37.1439 37.9484 37.0448 37.9484L34.8148 37.9442V36.719L37.2283 36.7253V36.7232ZM34.4688 36.719V37.9442L32.0046 37.938V36.7128L34.4688 36.719ZM32.011 34.8822V33.6341L34.4751 33.6404V34.8885L32.011 34.8822ZM34.8232 34.8885V33.6404L37.2368 33.6466V34.8947L34.8232 34.8885ZM32.0152 33.2888V32.1489L37.2389 32.1593V33.2992L32.0152 33.2888ZM32.0173 31.8036V30.5825L34.4814 30.5888V31.8098L32.0173 31.8036ZM34.8296 31.8098V30.5888L36.857 30.5929C37.068 30.5929 37.241 30.7635 37.241 30.9736V31.814L34.8296 31.8098ZM29.7683 36.3675V35.394L30.8295 35.396V36.3696L29.7683 36.3675ZM30.8253 36.7149V37.8153C30.8232 37.8818 30.7683 37.9359 30.7008 37.9359H30.0637C29.8991 37.9359 29.7662 37.8028 29.7662 37.6405V36.7128L30.8274 36.7149H30.8253ZM29.7704 34.8718V33.6404L30.8316 33.6425V34.8739L29.7704 34.8718ZM29.7746 33.2951V32.1448L30.8358 32.1468V33.2972L29.7746 33.2951ZM29.7789 31.7974V30.8134C29.781 30.6845 29.8886 30.5763 30.0215 30.5784H30.7599C30.8042 30.5784 30.8401 30.6158 30.8401 30.6595V31.8015L29.7789 31.7974ZM34.8359 28.4483L34.8401 26.4056C34.8401 25.9958 35.1798 25.6609 35.5975 25.663H36.8633C37.0785 25.6671 37.2515 25.8398 37.2515 26.0499L37.2473 28.363C37.2473 28.5773 37.0701 28.752 36.8528 28.752L35.1397 28.7478C34.973 28.7478 34.838 28.6126 34.838 28.4483H34.8359ZM28.2514 35.6706C28.2514 35.5167 28.3801 35.3919 28.5341 35.3919H29.1691C29.3063 35.3919 29.4181 35.5042 29.416 35.6394L29.4118 37.7737C29.4118 38.0524 29.6417 38.2792 29.9244 38.2812H30.9962C31.0932 38.2833 31.1713 38.2063 31.1713 38.1107L31.1776 35.6061C31.1776 35.4917 31.2725 35.3981 31.3886 35.3981H31.4877C31.5827 35.3981 31.6565 35.473 31.6565 35.5666L31.6502 38.1127C31.6502 38.2084 31.7283 38.2854 31.8253 38.2854L37.1355 38.2979C37.376 38.2979 37.5722 38.1065 37.5722 37.8694L37.5764 35.6457C37.5764 35.5167 37.6819 35.4127 37.8127 35.4127H38.4773C38.625 35.4127 38.7452 35.5333 38.7431 35.6789L38.7389 37.7362C38.7199 37.7508 38.703 37.7654 38.684 37.782C38.684 37.782 38.6798 37.7862 38.6756 37.7882C38.6587 37.8007 38.644 37.8153 38.6271 37.8278C38.6207 37.8319 38.6144 37.8382 38.606 37.8423C38.5933 37.8527 38.5807 37.861 38.5659 37.8714C38.5575 37.8777 38.5511 37.8818 38.5448 37.8881C38.5321 37.8985 38.5195 37.9068 38.5068 37.9172C38.4984 37.9234 38.4899 37.9297 38.4836 37.9359C38.471 37.9442 38.4583 37.9546 38.4477 37.963C38.4393 37.9692 38.4288 37.9754 38.4203 37.9817C38.4098 37.99 38.3971 37.9983 38.3845 38.0066C38.376 38.0129 38.3676 38.0191 38.357 38.0254C38.3465 38.0337 38.3338 38.042 38.3212 38.0503C38.3106 38.0566 38.3022 38.0628 38.2937 38.0691C38.2811 38.0774 38.2684 38.0857 38.2558 38.094C38.2452 38.1003 38.2368 38.1044 38.2283 38.1107C38.2157 38.119 38.203 38.1273 38.1882 38.1356C38.1798 38.1419 38.1693 38.146 38.1608 38.1523C38.1482 38.1606 38.1334 38.171 38.1207 38.1793C38.1123 38.1835 38.1039 38.1897 38.0954 38.1959C38.0807 38.2043 38.0659 38.2147 38.0511 38.223C38.0427 38.2271 38.0363 38.2334 38.0279 38.2375C38.0131 38.2479 37.9963 38.2563 37.9815 38.2646C37.9731 38.2687 37.9667 38.275 37.9604 38.2771C37.9393 38.2896 37.9203 38.2999 37.8992 38.3124C37.8971 38.3124 37.8929 38.3145 37.8908 38.3166C37.8676 38.3291 37.8444 38.3436 37.8212 38.3561C37.8169 38.3561 37.8127 38.3603 37.8106 38.3624C37.7916 38.3728 37.7726 38.3852 37.7536 38.3956C37.7452 38.3998 37.7389 38.404 37.7304 38.4081C37.7157 38.4185 37.6988 38.4268 37.6819 38.4352C37.6735 38.4393 37.665 38.4456 37.6566 38.4497C37.6418 38.458 37.6271 38.4664 37.6123 38.4726C37.6017 38.4788 37.5933 38.483 37.5828 38.4892C37.568 38.4976 37.5553 38.5038 37.5406 38.5101C37.53 38.5163 37.5216 38.5205 37.511 38.5267C37.4984 38.5329 37.4836 38.5413 37.4709 38.5475C37.4604 38.5537 37.4498 38.5579 37.4393 38.5641C37.4266 38.5704 37.4119 38.5787 37.3992 38.5849C37.3887 38.5891 37.3781 38.5953 37.3676 38.5995C37.3549 38.6078 37.3401 38.6141 37.3275 38.6203C37.3169 38.6245 37.3064 38.6307 37.2958 38.6349C37.2832 38.6411 37.2684 38.6473 37.2557 38.6557C37.2452 38.6598 37.2346 38.6661 37.2262 38.6702C37.2114 38.6765 37.1988 38.6827 37.184 38.6889C37.1735 38.6931 37.165 38.6993 37.1545 38.7035C37.1397 38.7118 37.1249 38.7181 37.1123 38.7243C37.1017 38.7285 37.0933 38.7326 37.0827 38.7368C37.068 38.743 37.0532 38.7493 37.0406 38.7576C37.03 38.7617 37.0216 38.7659 37.0131 38.7701C36.9963 38.7784 36.9794 38.7867 36.9625 38.795C36.9562 38.7971 36.9519 38.7992 36.9456 38.8033L36.876 38.8346C36.876 38.8346 36.8591 38.8429 36.8486 38.847C36.8359 38.8533 36.8211 38.8595 36.8064 38.8658C36.7958 38.8699 36.7874 38.8741 36.7768 38.8782C36.7642 38.8845 36.7515 38.8886 36.7389 38.8949C36.7283 38.899 36.7178 38.9053 36.7093 38.9074L36.6714 38.924C36.6714 38.924 36.6503 38.9323 36.6397 38.9365C36.6292 38.9406 36.6165 38.9469 36.6038 38.951C36.5933 38.9552 36.5827 38.9614 36.5722 38.9635C36.5616 38.9698 36.549 38.9739 36.5384 38.9781C36.5279 38.9822 36.5173 38.9864 36.5068 38.9906C36.4962 38.9947 36.4857 39.001 36.473 39.0051C36.4625 39.0093 36.4519 39.0134 36.4414 39.0176C36.4308 39.0218 36.4203 39.0259 36.4097 39.0301C36.3992 39.0343 36.3886 39.0384 36.3781 39.0426C36.3675 39.0467 36.357 39.0509 36.3465 39.055C36.3359 39.0592 36.3254 39.0634 36.3148 39.0675C36.3043 39.0717 36.2937 39.0759 36.2853 39.08C36.2747 39.0842 36.2642 39.0883 36.2557 39.0925C36.2452 39.0967 36.2346 39.1008 36.2262 39.105C36.2156 39.1091 36.2051 39.1133 36.1967 39.1175C36.1861 39.1216 36.1777 39.1258 36.1692 39.1279C36.1587 39.132 36.1481 39.1362 36.1376 39.1403C36.1292 39.1424 36.1228 39.1466 36.1144 39.1487C36.0891 39.1591 36.0637 39.1695 36.0363 39.1778C36.0321 39.1778 36.0279 39.1799 36.0258 39.1819C36.0152 39.1861 36.0047 39.1903 35.9941 39.1944C35.9857 39.1965 35.9794 39.2007 35.9709 39.2027C35.9604 39.2069 35.9498 39.2111 35.9414 39.2152C35.9329 39.2173 35.9266 39.2215 35.9203 39.2235C35.9097 39.2277 35.9013 39.2298 35.8908 39.2339C35.8823 39.236 35.8739 39.2402 35.8654 39.2443C35.857 39.2464 35.8486 39.2506 35.8401 39.2527C35.8317 39.2547 35.8232 39.2589 35.8148 39.261C35.8064 39.2631 35.7979 39.2672 35.7895 39.2693C35.781 39.2714 35.7747 39.2755 35.7663 39.2776C35.7578 39.2818 35.7494 39.2839 35.741 39.288C35.7325 39.2901 35.7262 39.2943 35.7178 39.2964C35.7093 39.2984 35.703 39.3005 35.6945 39.3047C35.6861 39.3068 35.6798 39.3109 35.6735 39.313C35.665 39.313 35.6587 39.3172 35.6502 39.3213C35.6418 39.3234 35.6355 39.3276 35.6291 39.3296C35.6228 39.3317 35.6165 39.3338 35.6102 39.338C35.6017 39.34 35.5954 39.3421 35.5869 39.3463C35.5806 39.3463 35.5764 39.3504 35.5701 39.3525C35.5616 39.3546 35.5532 39.3588 35.5469 39.3608C35.5426 39.3608 35.5363 39.365 35.5342 39.365C35.5089 39.3754 35.4857 39.3816 35.4646 39.39C35.4308 39.4004 35.4034 39.4108 35.3781 39.4191C35.3401 39.4316 35.3127 39.4399 35.2937 39.4461L28.4033 39.4316C28.3147 39.4316 28.243 39.3608 28.2451 39.2756L28.2535 35.6748L28.2514 35.6706ZM44.8571 31.321L44.8866 17.6689C44.8866 17.5441 44.99 17.4422 45.1166 17.4422H45.1672C45.2769 17.4422 45.3656 17.5316 45.3656 17.6398L45.3381 30.3787C45.3234 30.4099 45.3065 30.4411 45.2917 30.4744C45.2791 30.5014 45.2643 30.5285 45.2516 30.5555C45.2305 30.5971 45.2094 30.6408 45.1883 30.6824C45.1757 30.7053 45.1651 30.7302 45.1525 30.7531C45.1293 30.801 45.1039 30.8488 45.0807 30.8967C45.0702 30.9175 45.0596 30.9362 45.0491 30.957C45.0132 31.0256 44.9774 31.0943 44.9415 31.1629C44.9162 31.2128 44.8866 31.2648 44.8571 31.3168V31.321ZM45.9373 29.012C45.8867 29.1431 45.6926 29.1077 45.6926 28.9683L45.7179 17.698C45.7179 17.5566 45.8339 17.4422 45.9753 17.4442H46.2348C46.355 17.4442 46.45 17.5399 46.45 17.6585L46.4289 27.2293C46.4289 27.2418 46.412 27.7868 45.9373 29.012ZM46.2812 17.101L26.6839 17.0594C26.5299 17.0594 26.4054 16.9367 26.4075 16.7848V16.6392C26.4075 16.4874 26.5341 16.3646 26.6881 16.3667L46.2854 16.4083C46.3803 16.4083 46.4563 16.4832 46.4563 16.5768V16.9325C46.4563 17.0241 46.3761 17.101 46.2812 17.101ZM29.9941 15.8571L29.9983 14.0369C29.9983 13.9433 30.0742 13.8684 30.1692 13.8684H30.705C30.7979 13.8684 30.8738 13.9454 30.8738 14.039L30.8696 15.8592C30.8696 15.9528 30.7936 16.0277 30.6987 16.0277H30.1628C30.0679 16.0277 29.9919 15.9507 29.9919 15.8571H29.9941ZM31.2219 15.8612L31.2261 14.0411C31.2261 13.9475 31.3021 13.8726 31.397 13.8726L34.3464 13.8788C34.4414 13.8788 34.5173 13.9537 34.5173 14.0473L34.5131 15.8675C34.5131 15.9611 34.4371 16.036 34.3422 16.036L31.3928 16.0297C31.2979 16.0297 31.2219 15.9548 31.2219 15.8612ZM34.8654 15.8675L34.8696 14.0473C34.8696 13.9537 34.9456 13.8788 35.0405 13.8788L37.1081 13.883C37.203 13.883 37.279 13.9579 37.279 14.0515L37.2747 15.8716C37.2747 15.9652 37.1988 16.0401 37.1038 16.0401L35.0363 16.036C34.9414 16.036 34.8654 15.9611 34.8654 15.8675ZM37.625 15.8737L37.6292 14.0536C37.6292 13.96 37.7051 13.8851 37.8001 13.8851L40.2642 13.8913C40.3571 13.8913 40.4351 13.9662 40.4351 14.0598L40.4309 15.88C40.4309 15.9736 40.3528 16.0485 40.26 16.0485L37.7958 16.0422C37.7009 16.0422 37.625 15.9673 37.625 15.8737ZM40.7811 15.88L40.7853 14.0598C40.7853 13.9662 40.8613 13.8913 40.9562 13.8913H41.0955C41.1883 13.8913 41.2642 13.9683 41.2642 14.0598L41.26 15.88C41.26 15.9736 41.1841 16.0485 41.0891 16.0485H40.9499C40.8549 16.0485 40.7811 15.9715 40.7811 15.88ZM41.6123 15.882L41.6166 14.0619C41.6166 13.9683 41.6925 13.8934 41.7874 13.8934H42.5596C42.6524 13.8934 42.7284 13.9704 42.7284 14.064L42.7242 15.8841C42.7242 15.9777 42.6482 16.0526 42.5533 16.0526H41.7811C41.6862 16.0526 41.6102 15.9756 41.6102 15.882H41.6123ZM43.0765 15.8862L43.0807 14.0661C43.0807 13.9725 43.1567 13.8976 43.2516 13.8976H44.3719C44.4668 13.8996 44.5428 13.9766 44.5428 14.0681L44.5385 15.8883C44.5385 15.9819 44.4626 16.0568 44.3677 16.0568H43.2474C43.1524 16.0547 43.0765 15.9777 43.0765 15.8862ZM44.8909 15.8904L44.8951 14.0702C44.8951 13.9766 44.971 13.9017 45.066 13.9017H45.2052C45.3002 13.9017 45.3761 13.9787 45.3761 14.0702L45.3719 15.8904C45.3719 15.984 45.2959 16.0589 45.201 16.0589H45.0618C44.9668 16.0589 44.8909 15.9819 44.8909 15.8904ZM46.2875 16.0609H45.9078C45.8044 16.0609 45.72 15.9777 45.72 15.8737L45.7242 14.0827C45.7242 13.9829 45.8065 13.9017 45.9099 13.9017H46.3107C46.3909 13.9017 46.4584 13.9683 46.4584 14.0494L46.4542 15.9008C46.4542 15.9902 46.3803 16.063 46.2896 16.063L46.2875 16.0609ZM46.2875 13.5585L26.5826 13.5148C26.4898 13.5148 26.4117 13.4378 26.4117 13.3463V12.9906C26.4117 12.897 26.4898 12.8221 26.5847 12.8221L46.2896 12.8658C46.3846 12.8658 46.4605 12.9407 46.4605 13.0343V13.39C46.4605 13.4815 46.3824 13.5585 46.2875 13.5585ZM33.8907 0.424353V0.345307L36.9794 0.351547C37.1608 0.351547 37.3085 0.497159 37.3064 0.676053V1.37291C37.3064 1.5102 37.1925 1.62045 37.0532 1.62045L35.1059 1.61629C34.9878 1.61629 34.8928 1.52268 34.8928 1.40619V0.599087C34.8928 0.503399 34.8169 0.426433 34.7199 0.426433H33.8886L33.8907 0.424353ZM37.1587 1.96783C37.2389 1.96783 37.3064 2.03232 37.3064 2.11345V2.15297C37.3064 2.22577 37.2452 2.28402 37.1714 2.28402L15.1648 2.23617C15.1247 2.23617 15.0888 2.22369 15.0593 2.19665L14.7344 1.91791L37.1566 1.96575L37.1587 1.96783ZM0.928282 12.2022L12.0191 2.16961C12.2027 2.00528 12.439 1.91375 12.6858 1.91583H13.8419C14.0719 1.91791 14.2934 2.0032 14.4622 2.15713L24.6374 11.4263L25.5109 12.223C25.61 12.3146 25.5446 12.4768 25.4096 12.4768H24.4602C24.34 12.4747 24.2239 12.429 24.1395 12.3458L14.3863 3.06408C14.3863 3.06408 14.3799 3.05784 14.3757 3.05576C14.3715 3.0516 14.3652 3.04744 14.3609 3.04536C14.3567 3.04328 14.3504 3.0412 14.3462 3.03704C14.342 3.03704 14.3356 3.0308 14.3314 3.02872C14.3272 3.02664 14.3209 3.02456 14.3145 3.02248C14.3103 3.02248 14.304 3.0204 14.2998 3.01832C14.2892 3.01624 14.2787 3.01416 14.266 3.01416L12.2322 3.01C12.2196 3.01 12.209 3.01 12.1985 3.01416C12.1921 3.01416 12.1879 3.01624 12.1816 3.01832C12.1753 3.01832 12.171 3.0204 12.1647 3.02248C12.1584 3.02456 12.1542 3.02872 12.1478 3.0308C12.1436 3.0308 12.1373 3.03496 12.1352 3.03704C12.131 3.0412 12.1246 3.04536 12.1204 3.04744C12.1162 3.04952 12.112 3.05368 12.1099 3.05576L2.3629 12.2709C2.25952 12.3686 2.12028 12.4248 1.97682 12.4227H1.01267C0.896636 12.4207 0.843893 12.2792 0.928282 12.2022ZM15.8441 38.9614C15.8546 38.9926 15.8673 39.0238 15.8799 39.055C15.9179 39.1403 15.9601 39.2568 16.0086 39.4004H15.7766C15.7428 39.2776 15.7048 39.1591 15.6605 39.0467C15.5171 38.6702 15.5888 38.3312 15.6605 38.0046C15.6774 37.9234 15.6943 37.8465 15.7091 37.7674C15.7407 37.5885 15.7196 37.4138 15.6479 37.2432C15.5972 37.1205 15.4749 37.0394 15.3399 37.0394C15.2027 37.0394 15.0825 37.1184 15.0297 37.2411C14.958 37.4096 14.9369 37.5865 14.9664 37.7654C14.9791 37.8444 14.996 37.9214 15.0128 38.0025C15.0825 38.3312 15.1563 38.6702 15.0086 39.0426C14.9643 39.1549 14.9263 39.2735 14.8905 39.3962H14.6584C14.7048 39.2527 14.7491 39.1362 14.7871 39.0509C14.7998 39.0197 14.8124 38.9885 14.823 38.9594C14.939 38.6224 14.8842 38.2375 14.6732 37.9318C14.5761 37.7903 14.4453 37.574 14.3631 37.341V36.5984L16.3652 36.6025C16.3968 36.7669 16.3989 36.9291 16.3778 37.0851C16.3314 37.4034 16.1458 37.7217 15.9981 37.9338C15.785 38.2375 15.728 38.6224 15.842 38.9594L15.8441 38.9614ZM15.3335 39.1715C15.3631 39.2443 15.3884 39.3213 15.4116 39.3983H15.2555C15.2787 39.3192 15.3061 39.2443 15.3335 39.1715ZM15.3377 37.4076C15.3736 37.5053 15.3821 37.6073 15.3652 37.7071C15.3567 37.7529 15.3483 37.7986 15.3377 37.8465C15.3293 37.7986 15.3188 37.7529 15.3103 37.7071C15.2934 37.6073 15.3019 37.5053 15.3377 37.4076ZM14.4917 38.8512C14.4854 38.872 14.477 38.8928 14.4685 38.9136C14.4348 38.9885 14.3989 39.0821 14.3609 39.1903V38.094C14.3694 38.1044 14.3778 38.1169 14.3863 38.1273C14.5339 38.3436 14.574 38.6141 14.4917 38.8512ZM14.3673 36.2552V35.7622L17.0129 35.7684C17.1289 35.7684 17.2217 35.862 17.2217 35.9764V36.1844C17.2217 36.226 17.1859 36.2614 17.1437 36.2614L14.3673 36.2552ZM16.2892 38.1315C16.4559 37.8881 16.669 37.5199 16.726 37.1371C16.7407 37.0373 16.747 36.9374 16.7428 36.8355C16.7386 36.7107 16.8378 36.6067 16.9644 36.6067H17.1437C17.38 36.6067 17.572 36.4195 17.572 36.1865V35.9785C17.572 35.6727 17.323 35.4252 17.015 35.4252L14.3715 35.4189V35.3628L20.8863 35.3773L21.0636 36.147L20.9306 36.3092C20.7809 36.4923 20.7851 36.7544 20.9412 36.9333L21.0889 37.1018L20.6036 39.1591C20.5678 39.3088 20.4327 39.4149 20.2745 39.4149L16.6141 39.4066C16.4728 39.4066 16.3483 39.3172 16.3019 39.184C16.266 39.08 16.2323 38.9926 16.2006 38.9219C16.1922 38.9011 16.1838 38.8824 16.1753 38.8595C16.0951 38.6224 16.1373 38.352 16.2871 38.1377L16.2892 38.1315ZM22.4729 35.9827L22.3843 35.9618L22.0361 35.9182H21.8188L21.4707 35.9598L21.3821 35.9785L21.2429 35.3732L21.1627 35.0279L20.9982 34.3248C20.9982 34.3248 21.0087 34.3248 21.015 34.3248H21.0931L22.7809 34.2998C22.7851 34.2977 22.7893 34.2936 22.7935 34.2915C22.7956 34.2894 22.7999 34.2873 22.802 34.2832C22.8062 34.279 22.8104 34.2748 22.8125 34.2707C22.8146 34.2686 22.8189 34.2665 22.821 34.2624C22.8252 34.2582 22.8294 34.252 22.8315 34.2457C22.8315 34.2457 22.8357 34.2416 22.8357 34.2374C22.84 34.2291 22.8463 34.2208 22.8484 34.2124C22.8484 34.2124 22.8758 34.1396 22.9222 34.0377C22.9286 34.0231 22.9349 34.0086 22.9433 33.994L22.6986 35.0279L22.6184 35.3732L22.475 35.9764L22.4729 35.9827ZM22.5826 36.6504L22.4096 36.8979L22.0657 36.9749H21.7302L21.3758 36.8917L21.207 36.7003C21.1627 36.6504 21.1606 36.5734 21.2028 36.5214L21.3505 36.3425L21.7028 36.2635H22.1564L22.494 36.3404L22.5889 36.5006C22.6163 36.5485 22.6121 36.6067 22.5826 36.6504ZM20.9285 39.2901L21.0256 38.8803L21.4074 37.2578L21.4961 37.2786L21.8442 37.3223H21.9433L22.2914 37.2807L22.38 37.262L22.7851 39.001L22.8505 39.2984C22.8653 39.3588 22.8167 39.417 22.7535 39.417L21.0214 39.4128C20.9581 39.4128 20.9095 39.3546 20.9243 39.2922L20.9285 39.2901ZM22.7028 37.0872L22.8695 36.8459C22.9771 36.6899 22.9855 36.4881 22.8885 36.3259L22.7914 36.1615L22.9265 35.5874C22.956 35.4668 23.0657 35.3794 23.1923 35.3794H23.7092C23.859 35.3794 23.9792 35.5001 23.9771 35.6457L23.9687 39.1674C23.9687 39.3068 23.8547 39.417 23.7155 39.417H23.4644C23.3336 39.417 23.2176 39.3255 23.1881 39.1986L22.6986 37.0872H22.7028ZM23.8379 35.0362H23.1817C23.1184 35.0362 23.072 34.9759 23.0868 34.9155L23.4433 33.4074C23.4539 33.3637 23.4897 33.3325 23.5362 33.3304C23.6311 33.3221 23.7556 33.3159 23.8695 33.3096C23.9349 33.3055 23.9876 33.3575 23.9876 33.422L23.9834 34.8947C23.9834 34.9738 23.9201 35.0362 23.84 35.0362H23.8379ZM23.8041 32.9643C23.6142 32.9727 23.3948 32.9893 23.2809 33.0226C23.2598 33.0267 23.2387 33.0351 23.2197 33.0455C22.9539 33.216 22.7366 33.605 22.6037 33.9025C22.5952 33.9191 22.5889 33.9358 22.5826 33.9524C22.5826 33.9587 22.5783 33.9628 22.5762 33.967C22.5741 33.9732 22.5699 33.9795 22.5678 33.9857H21.1754C21.1627 33.9233 21.1416 33.8546 21.1079 33.7839C21.0973 33.7631 21.0868 33.7423 21.0741 33.7215C20.9939 33.5801 20.8758 33.4657 20.7239 33.3825C20.534 33.2784 20.2914 33.2244 20.0045 33.2244C19.4981 33.2244 19.0319 32.9727 18.7049 32.7376C18.6036 32.6648 18.6395 32.5067 18.7618 32.4797L19.1838 32.3902C19.5889 32.3028 20.0024 32.2592 20.4159 32.2612L23.8379 32.2696C23.9201 32.2696 23.9876 32.3361 23.9876 32.4173V32.7813C23.9876 32.8811 23.9075 32.9643 23.8041 32.9685V32.9643ZM20.4138 31.9118C19.9749 31.9118 19.5382 31.9575 19.1099 32.0491L18.0656 32.2737C18.0044 32.2862 17.9559 32.332 17.9369 32.3902C17.9179 32.4485 17.9306 32.5109 17.9728 32.5587C18.0108 32.6003 18.8926 33.5697 20.0045 33.5717C20.0678 33.5717 20.1268 33.5738 20.1838 33.5801C20.361 33.5988 20.5045 33.7319 20.5446 33.9046L20.726 34.6846C20.7682 34.8635 20.6311 35.032 20.4454 35.032L14.6711 35.0195C14.5065 35.0195 14.3736 34.8864 14.3736 34.7242L14.3778 33.2327C14.3778 33.033 14.4432 32.8395 14.5656 32.6814C14.6183 32.6128 14.669 32.5441 14.7238 32.4755C16.0445 30.7448 17.5424 28.7832 18.996 27.8846C19.7787 27.402 20.4876 27.1648 21.1079 27.1773C21.8336 27.194 22.437 27.4269 22.9032 27.87C23.9834 28.8997 23.994 31.1775 23.994 31.2004V31.9201L20.418 31.9118H20.4138ZM23.1416 27.6225C22.61 27.117 21.9285 26.8507 21.1121 26.832C20.4243 26.8154 19.6479 27.0733 18.8061 27.5913C17.2956 28.5232 15.7787 30.5118 14.439 32.2675C14.4179 32.2966 14.3968 32.3236 14.3757 32.3507L14.3926 25.0493C14.5571 24.6458 14.7238 24.2672 14.8926 23.926C15.515 22.6696 16.5804 21.6711 17.8167 21.1865C18.0129 21.1095 18.2154 21.0429 18.4158 20.993C19.2281 20.7891 20.0467 20.8016 20.8505 21.0304C20.8505 21.0304 20.8519 21.0304 20.8547 21.0304C20.8547 21.0304 20.8631 21.0304 20.8652 21.0325C21.3146 21.1636 21.7766 21.0242 22.0741 20.6706C22.3716 20.3169 22.4222 19.8427 22.207 19.4329C21.8357 18.7235 20.8948 18.2201 19.2492 17.852C18.8188 17.7563 18.4095 17.5982 18.0255 17.3839L21.9771 17.3922C22.1944 17.5503 22.4328 17.7105 22.6859 17.8644C23.418 18.3117 23.8632 18.9877 24.0109 19.876L23.9898 29.0682C23.8125 28.5378 23.5446 28.0073 23.1374 27.6204L23.1416 27.6225ZM14.3947 24.1611L14.4095 17.3756L17.3821 17.3818C17.9264 17.7729 18.5298 18.0433 19.1753 18.1889C20.6901 18.5301 21.5826 18.9898 21.899 19.5931C22.0783 19.9342 21.9686 20.2608 21.8083 20.4522C21.6458 20.6456 21.3399 20.812 20.9665 20.7018C20.9665 20.7018 20.9644 20.7018 20.9623 20.7018C20.9581 20.7018 20.9539 20.7018 20.9517 20.6997C20.0889 20.4522 19.207 20.4397 18.3357 20.6602C18.1184 20.7143 17.9011 20.785 17.6922 20.8661C17.0361 21.1261 16.4243 21.5193 15.8926 22.0164C15.3631 22.5136 14.9137 23.1106 14.5825 23.7763C14.5213 23.9011 14.4601 24.03 14.3989 24.1632L14.3947 24.1611ZM22.8737 17.5711C22.7767 17.5129 22.6838 17.4526 22.5931 17.3943H24.0193L24.0172 18.7818C23.7893 18.347 23.4328 17.9123 22.8758 17.5711H22.8737ZM23.8231 17.0511L2.7089 17.0053C2.5591 17.0053 2.43885 16.8847 2.43885 16.737V16.5082C2.43885 16.4 2.52957 16.3126 2.63927 16.3126L23.8083 16.3584C23.9286 16.3584 24.0235 16.4541 24.0235 16.5706V16.8556C24.0235 16.9637 23.9328 17.0511 23.8231 17.0511ZM14.0593 17.5628L14.0107 39.0426C14.0107 39.2381 13.8504 39.3941 13.6521 39.3941H12.7069C12.4959 39.392 12.3272 39.2235 12.3272 39.0155L12.3757 17.5524C12.3757 17.4526 12.458 17.3694 12.5613 17.3694H13.8715C13.977 17.3714 14.0614 17.4567 14.0614 17.5607L14.0593 17.5628ZM11.9031 35.8266C10.7702 37.5885 10.344 38.6328 10.1837 39.1466C10.1394 39.2901 10.0043 39.3858 9.85245 39.3858L7.77225 39.3816C7.61191 39.3816 7.5001 39.2256 7.55495 39.0759C7.61402 38.9157 7.67731 38.7326 7.73428 38.5433C8.06339 37.4637 7.93048 37.1455 7.80179 37.0019C7.35452 36.5048 6.70473 36.4819 4.35238 36.6587C3.03379 36.7585 2.56965 36.1075 2.43463 35.4418C2.42408 35.3856 2.46839 35.3357 2.52535 35.3357L11.7786 35.3565C11.8904 35.3565 11.9833 35.448 11.9833 35.5583C11.9833 35.654 11.9537 35.7476 11.9031 35.8287V35.8266ZM11.9812 36.588L11.9748 39.1965C11.9748 39.3047 11.8862 39.392 11.7765 39.39H10.7343C10.6035 39.3879 10.5149 39.2631 10.555 39.1403C10.709 38.6869 11.0592 37.859 11.8588 36.5526C11.8926 36.4965 11.9812 36.5193 11.9812 36.5859V36.588ZM7.1541 39.1611C7.10136 39.2922 6.97477 39.3816 6.83131 39.3816L2.55699 39.3733C2.46417 39.3733 2.38822 39.2984 2.38822 39.2069L2.39455 36.2364C2.70679 36.7003 3.29118 37.0851 4.38191 37.004C6.80599 36.821 7.23427 36.8896 7.54229 37.2328C7.70263 37.4117 7.48322 38.3124 7.1541 39.1611ZM11.5023 35.0091L2.78696 34.9904C2.57176 34.9904 2.39876 34.8178 2.39876 34.6056L2.41353 27.5039H2.52957C2.52957 27.5039 2.53379 27.5247 2.5359 27.533L2.55488 27.6204C2.56332 27.6537 2.57176 27.687 2.57809 27.7202C2.58653 27.7494 2.59286 27.7785 2.59919 27.8076C2.60763 27.8409 2.61607 27.8721 2.62451 27.9054C2.63294 27.9345 2.63927 27.9636 2.6456 27.9927C2.65404 28.0239 2.66248 28.0572 2.67092 28.0884C2.67936 28.1176 2.68569 28.1467 2.69202 28.1737C2.70046 28.207 2.7089 28.2382 2.71733 28.2694C2.72577 28.2985 2.7321 28.3256 2.74054 28.3526C2.74898 28.3859 2.75953 28.4192 2.76797 28.4504C2.77641 28.4774 2.78274 28.5045 2.79117 28.5294C2.79961 28.5648 2.81016 28.6002 2.82071 28.6355C2.82704 28.6584 2.83337 28.6813 2.8397 28.7042C2.85658 28.7582 2.87134 28.8123 2.88822 28.8643C2.88822 28.8664 2.88822 28.8706 2.89033 28.8747C3.06333 29.4489 3.25743 29.9876 3.46629 30.4702C3.52958 30.6138 3.59287 30.7552 3.65827 30.8904C3.85448 31.3002 4.06334 31.6684 4.28065 31.995C4.29963 32.022 4.31651 32.047 4.33339 32.0719C4.33339 32.0719 5.29332 33.4969 7.37562 33.605C8.91994 33.6841 10.9706 33.3512 11.9326 32.0886H11.9917L11.9854 34.5265C11.9854 34.7907 11.7681 35.005 11.5001 35.0029L11.5023 35.0091ZM2.41564 27.1607V26.9797C2.4283 27.04 2.44096 27.1004 2.45362 27.1607H2.41564ZM4.82496 32.0803L11.4136 32.0948C11.4495 32.0948 11.4643 32.1406 11.4369 32.1614C10.3503 32.9789 9.23218 33.2847 7.48111 33.2826C6.0697 33.2826 5.02749 32.3403 4.80386 32.124C4.78698 32.1073 4.80175 32.0803 4.82496 32.0803ZM11.8419 31.4687C11.8314 31.4978 11.8187 31.5269 11.8082 31.5561C11.7596 31.6726 11.6478 31.7495 11.5212 31.7474L4.52326 31.7329C4.51272 31.7162 4.50006 31.6975 4.48951 31.6809C4.47896 31.6642 4.46841 31.6476 4.45786 31.631C4.43255 31.5914 4.40934 31.5519 4.38402 31.5103C4.37769 31.4999 4.37136 31.4895 4.36503 31.4791C4.3355 31.4271 4.30385 31.3751 4.27432 31.321C4.26588 31.3064 4.25744 31.2898 4.249 31.2752C4.2279 31.2357 4.20469 31.1941 4.1836 31.1546C4.17305 31.1338 4.1625 31.1151 4.15195 31.0943C4.13085 31.0568 4.11187 31.0173 4.09077 30.9778C4.08022 30.957 4.07178 30.9383 4.06123 30.9195C4.03592 30.8696 4.01271 30.8218 3.9895 30.7718C3.98528 30.7614 3.97895 30.751 3.97473 30.7406C3.94942 30.6886 3.9241 30.6346 3.89878 30.5805L11.9348 30.5971C11.9685 30.5971 11.998 30.6262 11.998 30.6595C11.998 30.9362 11.9453 31.2087 11.844 31.4666L11.8419 31.4687ZM11.6942 30.2518L4.03381 30.2352C3.8587 30.2352 3.70047 30.1312 3.63718 29.971C3.54857 29.7422 3.46207 29.505 3.37979 29.2575C3.3376 29.1327 3.43464 29.0016 3.56756 29.0037L11.7596 29.0224C11.8926 29.0224 12.0002 29.1285 12.0002 29.2596V29.9564C12.0002 30.1208 11.863 30.2539 11.6964 30.2539L11.6942 30.2518ZM11.5297 28.675L3.19202 28.6563L2.91565 27.6017C2.90299 27.5518 2.93886 27.506 2.98949 27.506L11.5824 27.5247C11.8145 27.5247 12.0023 27.7119 12.0023 27.9407V28.2112C12.0023 28.467 11.7913 28.675 11.5297 28.675ZM11.5276 27.1794L3.05489 27.1607C2.91354 27.1607 2.78906 27.0629 2.76164 26.9256C2.51902 25.7441 2.4283 24.8475 2.41986 24.7581L2.43674 17.5753C2.43674 17.4505 2.54012 17.3486 2.6667 17.3506L11.8757 17.3714C11.9601 17.3714 12.0255 17.438 12.0255 17.5212L12.0044 26.7134C12.0044 26.9714 11.7913 27.1815 11.5276 27.1815V27.1794ZM2.44096 15.7884L2.44518 14.0078C2.44518 13.8976 2.5359 13.8102 2.64771 13.8102L5.3545 13.8164C5.47264 13.8164 5.56969 13.9121 5.56969 14.0286L5.56547 15.7156C5.56547 15.8592 5.44733 15.9736 5.30175 15.9736L2.6224 15.9673C2.52113 15.9673 2.44096 15.8862 2.44096 15.7884ZM5.91358 15.8009L5.9178 14.0265C5.9178 13.91 6.01273 13.8144 6.13299 13.8144H6.61401C6.71528 13.8144 6.79544 13.8976 6.79544 13.9953L6.79123 15.8155C6.79123 15.9028 6.71949 15.9736 6.63089 15.9736H6.08868C5.99164 15.9736 5.91569 15.8945 5.91569 15.7988L5.91358 15.8009ZM7.14144 15.5388V14.2325C7.14566 14.0037 7.33343 13.8206 7.56339 13.8206L11.5655 13.8289C11.8229 13.8289 12.0318 14.0369 12.0318 14.2907V15.4722C12.0276 15.7572 11.7934 15.9881 11.5044 15.9881L7.58448 15.9798C7.33976 15.9798 7.13933 15.7822 7.14144 15.5409V15.5388ZM12.3799 15.7864L12.3841 14.0349C12.3841 13.9225 12.477 13.8289 12.593 13.831H13.8926C13.9896 13.8331 14.0698 13.9121 14.0698 14.0099L14.0656 15.7572C14.0656 15.8883 13.958 15.9944 13.8272 15.9923H12.5867C12.4748 15.9902 12.382 15.8987 12.382 15.7884L12.3799 15.7864ZM20.5425 15.8488C20.5783 15.9216 20.5214 16.0068 20.4391 16.0048L16.6542 15.9964C16.5319 15.9964 16.4137 15.9382 16.342 15.8404C15.8483 15.1561 15.5508 14.4634 15.3968 14.0369C15.361 13.9392 15.4369 13.8352 15.5424 13.8352L20.6268 13.8456C20.7218 13.8456 20.7809 13.9454 20.7344 14.0265C20.5509 14.351 20.3526 14.7962 20.3716 15.2039C20.38 15.4119 20.4391 15.6262 20.5446 15.8467L20.5425 15.8488ZM15.8778 15.7822C15.939 15.8737 15.8694 15.9964 15.7597 15.9964H14.6204C14.5065 15.9944 14.4137 15.9028 14.4137 15.7905L14.4179 14.0598C14.4179 13.935 14.5213 13.8352 14.6458 13.8352H14.7871C14.8884 13.8352 14.977 13.8996 15.0086 13.9933C15.1331 14.3677 15.401 15.0562 15.8778 15.7822ZM23.6417 16.0131L21.0403 16.0069C21.0403 16.0069 21.0277 15.986 21.0214 15.9777C21.0171 15.9694 21.0108 15.9632 21.0066 15.9569C20.996 15.9444 20.9876 15.9299 20.9792 15.9174C20.9771 15.9132 20.9728 15.907 20.9686 15.9028C20.9581 15.8841 20.9454 15.8654 20.9349 15.8467C20.9328 15.8425 20.9285 15.8363 20.9264 15.8321C20.918 15.8176 20.9117 15.8051 20.9032 15.7905C20.899 15.7843 20.8948 15.776 20.8927 15.7697C20.8863 15.7593 20.88 15.7468 20.8737 15.7364C20.8695 15.7281 20.8652 15.7219 20.8631 15.7135C20.8589 15.7031 20.8526 15.6927 20.8484 15.6823C20.8441 15.674 20.8399 15.6657 20.8378 15.6595C20.8336 15.6491 20.8294 15.6387 20.8252 15.6303C20.823 15.622 20.8188 15.6137 20.8146 15.6054C20.8104 15.595 20.8062 15.5867 20.8041 15.5763C20.7998 15.5679 20.7977 15.5596 20.7935 15.5534C20.7893 15.543 20.7872 15.5326 20.783 15.5243C20.783 15.5159 20.7787 15.5076 20.7745 15.5014C20.7724 15.491 20.7682 15.4826 20.7661 15.4722C20.764 15.4639 20.7619 15.4577 20.7598 15.4494C20.7576 15.439 20.7534 15.4306 20.7513 15.4202C20.7513 15.4119 20.7471 15.4057 20.745 15.3974C20.7429 15.387 20.7408 15.3766 20.7387 15.3682C20.7387 15.3599 20.7366 15.3537 20.7344 15.3474C20.7344 15.337 20.7323 15.3266 20.7302 15.3183C20.7302 15.31 20.7281 15.3038 20.726 15.2975C20.726 15.2871 20.726 15.2767 20.7218 15.2642C20.7218 15.258 20.7218 15.2538 20.7218 15.2476C20.7218 15.2309 20.7197 15.2143 20.7197 15.1977C20.7197 15.1789 20.7197 15.1623 20.7197 15.1436V15.1249C20.7197 15.1124 20.7197 15.0999 20.7197 15.0874C20.7197 15.0812 20.7197 15.0749 20.7197 15.0666C20.7197 15.0562 20.7197 15.0437 20.7239 15.0313C20.7239 15.0229 20.7239 15.0167 20.7239 15.0105C20.7239 14.998 20.7281 14.9855 20.7302 14.9709C20.7302 14.9647 20.7302 14.9605 20.7323 14.9543C20.7365 14.9356 20.7387 14.9168 20.7429 14.8981C20.7429 14.8981 20.7429 14.894 20.7429 14.8919C20.7471 14.8752 20.7513 14.8586 20.7555 14.842C20.7555 14.8357 20.7576 14.8295 20.7598 14.8232C20.764 14.8108 20.7661 14.7983 20.7703 14.7858C20.7703 14.7796 20.7745 14.7712 20.7766 14.765C20.7787 14.7525 20.783 14.74 20.7872 14.7276C20.7872 14.7213 20.7914 14.7151 20.7935 14.7067C20.7977 14.6943 20.802 14.6797 20.8062 14.6672C20.8062 14.661 20.8104 14.6568 20.8125 14.6506C20.8188 14.6319 20.8252 14.6131 20.8336 14.5965C20.8336 14.5923 20.8357 14.5903 20.8378 14.5861C20.8441 14.5715 20.8505 14.557 20.8568 14.5424C20.8589 14.5362 20.8631 14.5299 20.8652 14.5237C20.8695 14.5112 20.8758 14.5008 20.88 14.4883C20.8821 14.4821 20.8863 14.4759 20.8906 14.4675C20.8948 14.4571 20.9011 14.4446 20.9053 14.4342C20.9074 14.428 20.9117 14.4218 20.9138 14.4155C20.9201 14.403 20.9264 14.3906 20.9328 14.3781C20.9349 14.3739 20.937 14.3677 20.9412 14.3635C20.9496 14.3469 20.9581 14.3302 20.9665 14.3136C20.9665 14.3094 20.9707 14.3053 20.9728 14.3032C20.9792 14.2907 20.9855 14.2762 20.9939 14.2637C20.996 14.2574 21.0003 14.2533 21.0024 14.247C21.0087 14.2366 21.0129 14.2262 21.0193 14.2179C21.0235 14.2117 21.0256 14.2054 21.0298 14.1992C21.0361 14.1888 21.0404 14.1805 21.0467 14.1701C21.0488 14.1638 21.053 14.1597 21.0551 14.1534C21.0614 14.143 21.0678 14.1326 21.0762 14.1201C21.0762 14.1181 21.0804 14.1139 21.0825 14.1097C21.091 14.0952 21.0994 14.0806 21.1079 14.0681C21.1079 14.0661 21.1121 14.0619 21.1142 14.0598C21.1205 14.0494 21.1269 14.039 21.1332 14.0286C21.1353 14.0245 21.1374 14.0203 21.1416 14.0161C21.1479 14.0078 21.1522 13.9995 21.1585 13.9912C21.1606 13.987 21.1627 13.9829 21.1669 13.9787C21.1733 13.9704 21.1775 13.9621 21.1838 13.9537C21.1838 13.9517 21.188 13.9475 21.1901 13.9433C21.1965 13.9329 21.2028 13.9246 21.2112 13.9142C21.2176 13.9038 21.2239 13.8934 21.2323 13.8851C21.2387 13.8768 21.2429 13.8684 21.2492 13.8622C21.2492 13.8622 21.2492 13.8601 21.2513 13.858C21.2534 13.8539 21.2555 13.8497 21.2598 13.8476L23.7049 13.8539C23.8822 13.8539 24.0235 13.9953 24.0235 14.1701L24.0193 15.6366C24.0193 15.8446 23.8484 16.0131 23.6374 16.0131H23.6417ZM23.7239 13.5107L2.68991 13.4649C2.55488 13.4649 2.44518 13.3567 2.44518 13.2236V13.0093C2.44518 12.8783 2.55488 12.7722 2.6878 12.7722L23.7155 12.818C23.8906 12.818 24.0319 12.9573 24.0319 13.13V13.209C24.0319 13.3754 23.8948 13.5107 23.726 13.5107H23.7239ZM12.0044 10.0721C12.0297 10.145 12.0402 10.2198 12.0402 10.2947V10.717L9.13725 6.85414C9.01066 6.68356 9.02965 6.4485 9.18366 6.30289L10.0001 5.53115C10.1499 5.3897 10.3989 5.45003 10.4664 5.64348L12.0044 10.0721ZM10.8904 4.69077L11.8187 3.81294C11.9073 3.72973 12.055 3.79214 12.055 3.91279L12.0445 9.12151L10.7322 5.33562C10.6541 5.10888 10.7153 4.8551 10.8904 4.69077ZM12.0381 11.2953V11.5345C12.0381 11.8278 11.6921 11.9921 11.458 11.8091L7.35241 8.58691C7.18364 8.45378 7.17098 8.20624 7.3271 8.05855L8.34188 7.09751C8.51066 6.93942 8.7807 6.96022 8.91994 7.14536L12.0381 11.2953ZM11.5128 12.2938C11.5761 12.3437 11.5402 12.4456 11.458 12.4456H10.2892C10.1584 12.4435 10.0276 12.4186 9.90308 12.3707L5.15407 10.5339C5.00428 10.4778 4.96842 10.2864 5.08234 10.1782L6.53595 8.80533C6.67308 8.67636 6.88616 8.66596 7.03595 8.78245L11.5128 12.2938ZM8.58872 12.2314C8.70053 12.275 8.66889 12.4394 8.54863 12.4394L3.12662 12.4269C2.97472 12.4269 2.90088 12.2438 3.01059 12.1398L4.33972 10.8855C4.47474 10.7565 4.67516 10.717 4.85027 10.7856L8.58872 12.2314ZM12.3862 12.0587L12.4052 3.68189C12.4052 3.50299 12.555 3.35738 12.7364 3.35738H13.7787C13.9495 3.35946 14.0888 3.49675 14.0888 3.66733L14.0698 12.092C14.0698 12.2896 13.9073 12.4498 13.7048 12.4498H12.7765C12.5592 12.4477 12.3841 12.273 12.3841 12.0608L12.3862 12.0587ZM15.6458 5.39386C15.7048 5.1588 15.9981 5.07768 16.1753 5.24409L16.7365 5.77869C16.9833 6.01375 17.034 6.3861 16.8546 6.67732L14.4242 10.64V10.1782L15.6458 5.39386ZM14.4285 8.74916L14.439 3.96479C14.439 3.82542 14.6078 3.75469 14.7112 3.85246L15.1458 4.26433C15.3588 4.46819 15.4453 4.76565 15.3736 5.04855L14.4285 8.74916ZM17.0002 7.10792C17.2133 6.75845 17.7006 6.69604 18.0002 6.97895L18.4243 7.38458C18.7302 7.67372 18.7281 8.15632 18.4222 8.44546L14.4221 12.2189V11.3098L17.0002 7.10792ZM21.1543 10.8376L15.9812 12.4539H14.6795L18.6184 8.73668C18.9623 8.41218 19.5045 8.41426 19.8484 8.73876L21.3188 10.1387C21.5488 10.3592 21.4581 10.742 21.1522 10.8376H21.1543ZM21.591 11.0103C21.8864 10.9146 22.2113 10.9874 22.4349 11.1996L23.3758 12.0961C23.5193 12.2314 23.4201 12.4706 23.2218 12.4706L17.131 12.4581L21.591 11.0103ZM0.411398 12.9053C0.411398 12.8284 0.47469 12.768 0.55275 12.768H1.865C1.9937 12.7701 2.09707 12.872 2.09707 13.001L2.04855 34.7699C2.04433 34.8094 2.03378 34.9634 2.04855 35.1693L2.04011 39.1591C2.04011 39.2776 1.94306 39.3712 1.82281 39.3712H0.603383C0.466251 39.3692 0.354435 39.2589 0.354435 39.1237L0.413507 12.9074L0.411398 12.9053ZM48.4331 40.3052C48.4331 40.4176 48.3382 40.5091 48.2263 40.5091L0.580176 40.4051C0.453592 40.4051 0.352325 40.3032 0.352325 40.1804V39.9412C0.352325 39.8143 0.457812 39.7145 0.584396 39.7145L21.1079 39.7581C21.1079 39.7581 21.1247 39.7581 21.1311 39.7581C21.1374 39.7581 21.1458 39.7581 21.1522 39.7581L22.6269 39.7623C22.6269 39.7623 22.6416 39.7623 22.648 39.7623C22.6543 39.7623 22.6627 39.7623 22.6712 39.7623L48.2285 39.8185C48.3403 39.8185 48.431 39.9079 48.431 40.0182V40.3073L48.4331 40.3052ZM48.4352 39.2194C48.4352 39.3588 48.3192 39.4711 48.1799 39.4711H47.0069C46.8656 39.469 46.7516 39.3546 46.7516 39.2152L46.8086 13.2028C46.8086 13.0177 46.9605 12.8679 47.1504 12.8679H48.1884C48.3572 12.87 48.4922 13.0052 48.4922 13.1716L48.4352 39.2194Z" fill="black"/>
</svg>
